<svg width="800" height="400" viewBox="0 0 800 400" xmlns="http://www.w3.org/2000/svg"><mask id="satori_om-id"><rect x="0" y="0" width="800" height="400" fill="#fff"/></mask><rect x="0" y="0" width="800" height="400" fill="#475569"/><mask id="satori_om-id-0"><rect x="242" y="67" width="317" height="155" fill="#fff"/></mask><path fill="#e2e8f0" d="M291.4 207.0L255.5 207.0L255.5 92.0L291.4 92.0L291.4 106.4L274.3 106.4L274.3 192.5L291.4 192.5L291.4 207.0ZM369.9 141.6L369.9 157.6L305.9 185.8L305.9 167.4L349.7 149.8L349.1 150.7L349.1 148.4L349.7 149.4L305.9 131.8L305.9 113.4L369.9 141.6ZM400.4 188.0L400.4 188.0Q395.9 188.0 392.7 184.8Q389.5 181.6 389.5 177.1L389.5 177.1Q389.5 172.6 392.7 169.4Q395.9 166.3 400.4 166.3L400.4 166.3Q404.8 166.3 408.0 169.4Q411.3 172.6 411.3 177.1L411.3 177.1Q411.3 180.1 409.8 182.6Q408.3 185.0 405.8 186.5Q403.4 188.0 400.4 188.0ZM400.4 139.1L400.4 139.1Q395.9 139.1 392.7 135.9Q389.5 132.7 389.5 128.2L389.5 128.2Q389.5 123.7 392.7 120.6Q395.9 117.4 400.4 117.4L400.4 117.4Q404.8 117.4 408.0 120.6Q411.3 123.7 411.3 128.2L411.3 128.2Q411.3 131.2 409.8 133.7Q408.3 136.2 405.8 137.6Q403.4 139.1 400.4 139.1ZM495.0 185.8L431.0 157.6L431.0 141.6L495.0 113.4L495.0 131.8L451.1 149.4L451.7 148.4L451.7 150.7L451.1 149.8L495.0 167.4L495.0 185.8ZM509.4 92.0L545.3 92.0L545.3 207.0L509.4 207.0L509.4 192.5L526.5 192.5L526.5 106.4L509.4 106.4L509.4 92.0Z "/><mask id="satori_om-id-1"><rect x="224" y="222" width="352" height="77" fill="#fff"/></mask><path fill="#e2e8f0" d="M262.7 248.7L253.3 248.7Q253.0 246.0 251.0 244.5Q248.9 242.9 245.3 242.9L245.3 242.9Q242.9 242.9 241.3 243.6Q239.6 244.3 238.7 245.5Q237.9 246.7 237.9 248.2L237.9 248.2Q237.8 249.4 238.4 250.3Q239.0 251.3 240 251.9Q241.0 252.6 242.4 253.1Q243.7 253.6 245.2 253.9L245.2 253.9L249.4 254.9Q252.5 255.6 255 256.7Q257.5 257.9 259.4 259.5Q261.3 261.2 262.3 263.4Q263.3 265.7 263.4 268.6L263.4 268.6Q263.3 272.9 261.2 276.0Q259.0 279.1 255.0 280.8Q251.0 282.6 245.3 282.6L245.3 282.6Q239.7 282.6 235.5 280.8Q231.3 279.1 229.0 275.7Q226.7 272.3 226.5 267.3L226.5 267.3L236.1 267.3Q236.2 269.6 237.4 271.2Q238.6 272.7 240.6 273.5Q242.6 274.3 245.2 274.3L245.2 274.3Q247.7 274.3 249.5 273.6Q251.4 272.9 252.4 271.6Q253.4 270.3 253.4 268.6L253.4 268.6Q253.4 267.0 252.5 265.9Q251.6 264.9 249.8 264.1Q248.1 263.4 245.5 262.8L245.5 262.8L240.5 261.5Q234.6 260.1 231.2 257.0Q227.8 254.0 227.8 248.8L227.8 248.8Q227.8 244.6 230.0 241.4Q232.3 238.3 236.3 236.5Q240.3 234.7 245.4 234.7L245.4 234.7Q250.6 234.7 254.5 236.5Q258.3 238.3 260.5 241.4Q262.7 244.6 262.7 248.7L262.7 248.7ZM311.0 251.7L311.0 251.7L301.1 251.7Q300.8 249.7 300.0 248.2Q299.1 246.7 297.8 245.6Q296.5 244.6 294.8 244.0Q293.0 243.4 291.0 243.4L291.0 243.4Q287.4 243.4 284.8 245.2Q282.1 247.0 280.6 250.4Q279.1 253.8 279.1 258.6L279.1 258.6Q279.1 263.6 280.6 267.0Q282.1 270.4 284.8 272.1Q287.5 273.8 291.0 273.8L291.0 273.8Q293.0 273.8 294.6 273.3Q296.3 272.8 297.7 271.8Q299.0 270.8 299.9 269.3Q300.7 267.9 301.1 266.0L301.1 266.0L311.0 266.0Q310.6 269.2 309.1 272.2Q307.6 275.2 305.0 277.5Q302.4 279.8 298.9 281.2Q295.3 282.5 290.8 282.5L290.8 282.5Q284.6 282.5 279.7 279.7Q274.8 276.9 272.0 271.6Q269.1 266.2 269.1 258.6L269.1 258.6Q269.1 251.0 272 245.7Q274.9 240.3 279.8 237.5Q284.7 234.7 290.8 234.7L290.8 234.7Q294.9 234.7 298.3 235.9Q301.8 237.0 304.5 239.2Q307.2 241.3 308.9 244.5Q310.5 247.6 311.0 251.7ZM327.9 281.9L318.1 281.9L318.1 235.4L336.5 235.4Q341.7 235.4 345.5 237.2Q349.2 239.1 351.2 242.5Q353.1 245.9 353.1 250.6L353.1 250.6Q353.1 255.2 351.1 258.5Q349.1 261.9 345.4 263.6Q341.6 265.4 336.2 265.4L336.2 265.4L323.9 265.4L323.9 257.5L334.6 257.5Q337.4 257.5 339.3 256.7Q341.2 255.9 342.1 254.4Q343 252.9 343 250.6L343 250.6Q343 248.2 342.1 246.7Q341.2 245.1 339.3 244.2Q337.4 243.4 334.6 243.4L334.6 243.4L327.9 243.4L327.9 281.9ZM332.6 260.7L343.2 260.7L354.8 281.9L343.9 281.9L332.6 260.7ZM391.5 281.9L360.1 281.9L360.1 235.4L391.5 235.4L391.5 243.5L369.9 243.5L369.9 254.6L389.8 254.6L389.8 262.7L369.9 262.7L369.9 273.8L391.5 273.8L391.5 281.9ZM430.8 281.9L399.3 281.9L399.3 235.4L430.7 235.4L430.7 243.5L409.1 243.5L409.1 254.6L429.0 254.6L429.0 262.7L409.1 262.7L409.1 273.8L430.8 273.8L430.8 281.9ZM467.6 235.4L477.4 235.4L477.4 281.9L468.9 281.9L448.7 252.6L448.3 252.6L448.3 281.9L438.5 281.9L438.5 235.4L447.1 235.4L467.2 264.6L467.6 264.6L467.6 235.4ZM528.3 258.6L528.3 258.6Q528.3 266.2 525.4 271.6Q522.6 276.9 517.6 279.7Q512.7 282.5 506.5 282.5L506.5 282.5Q500.3 282.5 495.4 279.7Q490.5 276.9 487.6 271.6Q484.7 266.2 484.7 258.6L484.7 258.6Q484.7 251.0 487.6 245.7Q490.5 240.3 495.4 237.5Q500.3 234.7 506.5 234.7L506.5 234.7Q512.7 234.7 517.6 237.5Q522.6 240.3 525.4 245.7Q528.3 251.0 528.3 258.6ZM518.3 258.6L518.3 258.6Q518.3 253.7 516.9 250.3Q515.4 246.9 512.8 245.2Q510.1 243.4 506.5 243.4L506.5 243.4Q503.0 243.4 500.3 245.2Q497.6 246.9 496.2 250.3Q494.7 253.7 494.7 258.6L494.7 258.6Q494.7 263.6 496.2 266.9Q497.6 270.3 500.3 272.1Q503.0 273.8 506.5 273.8L506.5 273.8Q510.1 273.8 512.8 272.1Q515.4 270.3 516.9 266.9Q518.3 263.6 518.3 258.6ZM545.4 281.9L535.6 281.9L535.6 235.4L545.4 235.4L545.4 255.9L546.0 255.9L562.8 235.4L574.6 235.4L557.3 256.2L574.8 281.9L563.0 281.9L550.3 262.8L545.4 268.7L545.4 281.9Z "/><mask id="satori_om-id-2"><rect x="149" y="299" width="502" height="34" fill="#fff"/></mask><path fill="#94a3b8" d="M168.6 311.4L164.3 311.4Q164.1 310.7 163.7 310.1Q163.3 309.6 162.8 309.2Q162.2 308.8 161.5 308.6Q160.8 308.4 160.0 308.4L160.0 308.4Q158.4 308.4 157.3 309.1Q156.1 309.9 155.4 311.4Q154.8 312.9 154.8 315.0L154.8 315.0Q154.8 317.1 155.4 318.6Q156.1 320.1 157.3 320.9Q158.4 321.7 160.0 321.7L160.0 321.7Q161.5 321.7 162.5 321.2Q163.6 320.6 164.1 319.7Q164.7 318.7 164.7 317.4L164.7 317.4L165.6 317.6L160.3 317.6L160.3 314.3L168.8 314.3L168.8 316.9Q168.8 319.6 167.7 321.5Q166.6 323.4 164.6 324.4Q162.6 325.5 160.0 325.5L160.0 325.5Q157.2 325.5 155.0 324.2Q152.8 323.0 151.6 320.6Q150.4 318.3 150.4 315.0L150.4 315.0Q150.4 312.6 151.1 310.6Q151.9 308.7 153.2 307.3Q154.5 306.0 156.2 305.3Q157.9 304.6 159.9 304.6L159.9 304.6Q161.7 304.6 163.2 305.1Q164.7 305.6 165.8 306.5Q167.0 307.4 167.7 308.7Q168.4 309.9 168.6 311.4L168.6 311.4ZM185.8 325.2L172.1 325.2L172.1 304.8L185.8 304.8L185.8 308.4L176.4 308.4L176.4 313.2L185.1 313.2L185.1 316.8L176.4 316.8L176.4 321.7L185.8 321.7L185.8 325.2ZM202.0 304.8L206.3 304.8L206.3 325.2L202.5 325.2L193.7 312.4L193.5 312.4L193.5 325.2L189.2 325.2L189.2 304.8L193.0 304.8L201.8 317.7L202.0 317.7L202.0 304.8ZM223.6 325.2L209.8 325.2L209.8 304.8L223.5 304.8L223.5 308.4L214.1 308.4L214.1 313.2L222.8 313.2L222.8 316.8L214.1 316.8L214.1 321.7L223.6 321.7L223.6 325.2ZM231.3 325.2L227.0 325.2L227.0 304.8L235.0 304.8Q237.3 304.8 238.9 305.7Q240.6 306.5 241.4 308.0Q242.3 309.5 242.3 311.5L242.3 311.5Q242.3 313.5 241.4 315.0Q240.5 316.4 238.9 317.2Q237.2 318.0 234.9 318.0L234.9 318.0L229.5 318.0L229.5 314.5L234.2 314.5Q235.4 314.5 236.2 314.2Q237.0 313.9 237.4 313.2Q237.9 312.5 237.9 311.5L237.9 311.5Q237.9 310.5 237.4 309.8Q237.0 309.1 236.2 308.7Q235.4 308.4 234.2 308.4L234.2 308.4L231.3 308.4L231.3 325.2ZM233.3 315.9L238.0 315.9L243.0 325.2L238.3 325.2L233.3 315.9ZM254.0 309.5L248.8 325.2L244.2 325.2L251.3 304.8L256.8 304.8L263.8 325.2L259.2 325.2L254.1 309.5L254.0 309.5ZM248.6 320.6L248.6 317.2L259.4 317.2L259.4 320.6L248.6 320.6ZM269.2 308.4L263.0 308.4L263.0 304.8L279.7 304.8L279.7 308.4L273.5 308.4L273.5 325.2L269.2 325.2L269.2 308.4ZM296.2 325.2L282.5 325.2L282.5 304.8L296.2 304.8L296.2 308.4L286.8 308.4L286.8 313.2L295.5 313.2L295.5 316.8L286.8 316.8L286.8 321.7L296.2 321.7L296.2 325.2Z M323.8 310.7L319.7 310.7Q319.6 309.5 318.7 308.8Q317.7 308.2 316.2 308.2L316.2 308.2Q315.1 308.2 314.4 308.5Q313.7 308.8 313.3 309.3Q312.9 309.8 312.9 310.4L312.9 310.4Q312.9 311.0 313.2 311.4Q313.4 311.8 313.9 312.1Q314.3 312.4 314.9 312.6Q315.5 312.8 316.1 313.0L316.1 313.0L318.0 313.4Q319.3 313.7 320.4 314.2Q321.5 314.7 322.3 315.4Q323.2 316.1 323.6 317.1Q324.1 318.1 324.1 319.4L324.1 319.4Q324.1 321.3 323.1 322.6Q322.2 324.0 320.4 324.7Q318.7 325.5 316.2 325.5L316.2 325.5Q313.7 325.5 311.9 324.7Q310.1 324.0 309.0 322.5Q308.0 321.0 308.0 318.8L308.0 318.8L312.1 318.8Q312.2 319.8 312.7 320.5Q313.3 321.2 314.1 321.5Q315.0 321.9 316.1 321.9L316.1 321.9Q317.2 321.9 318.0 321.6Q318.8 321.3 319.3 320.7Q319.7 320.1 319.7 319.4L319.7 319.4Q319.7 318.7 319.3 318.2Q318.9 317.8 318.2 317.4Q317.4 317.1 316.3 316.8L316.3 316.8L314.1 316.3Q311.5 315.7 310.0 314.3Q308.5 313.0 308.5 310.7L308.5 310.7Q308.5 308.9 309.5 307.5Q310.5 306.1 312.2 305.3Q314.0 304.6 316.2 304.6L316.2 304.6Q318.5 304.6 320.2 305.3Q321.9 306.1 322.8 307.5Q323.8 308.9 323.8 310.7L323.8 310.7ZM344.9 312.0L344.9 312.0L340.6 312.0Q340.5 311.1 340.1 310.5Q339.7 309.8 339.1 309.3Q338.6 308.9 337.8 308.6Q337.1 308.4 336.2 308.4L336.2 308.4Q334.6 308.4 333.4 309.2Q332.3 309.9 331.6 311.4Q331.0 312.9 331.0 315.0L331.0 315.0Q331.0 317.2 331.6 318.7Q332.3 320.2 333.4 320.9Q334.6 321.7 336.2 321.7L336.2 321.7Q337.0 321.7 337.8 321.4Q338.5 321.2 339.1 320.8Q339.7 320.3 340.0 319.7Q340.4 319.1 340.6 318.2L340.6 318.2L344.9 318.3Q344.8 319.7 344.1 321.0Q343.4 322.3 342.3 323.3Q341.2 324.3 339.6 324.9Q338.0 325.5 336.1 325.5L336.1 325.5Q333.4 325.5 331.2 324.3Q329.1 323.0 327.8 320.7Q326.6 318.3 326.6 315.0L326.6 315.0Q326.6 311.7 327.9 309.4Q329.1 307.0 331.3 305.8Q333.4 304.6 336.1 304.6L336.1 304.6Q337.9 304.6 339.4 305.1Q340.9 305.6 342.1 306.5Q343.2 307.5 344.0 308.8Q344.7 310.2 344.9 312.0ZM352.3 325.2L348.0 325.2L348.0 304.8L356.1 304.8Q358.4 304.8 360.0 305.7Q361.6 306.5 362.5 308.0Q363.4 309.5 363.4 311.5L363.4 311.5Q363.4 313.5 362.5 315.0Q361.6 316.4 359.9 317.2Q358.3 318.0 355.9 318.0L355.9 318.0L350.6 318.0L350.6 314.5L355.3 314.5Q356.5 314.5 357.3 314.2Q358.1 313.9 358.5 313.2Q358.9 312.5 358.9 311.5L358.9 311.5Q358.9 310.5 358.5 309.8Q358.1 309.1 357.3 308.7Q356.5 308.4 355.2 308.4L355.2 308.4L352.3 308.4L352.3 325.2ZM354.4 315.9L359.0 315.9L364.1 325.2L359.3 325.2L354.4 315.9ZM380.2 325.2L366.4 325.2L366.4 304.8L380.1 304.8L380.1 308.4L370.7 308.4L370.7 313.2L379.4 313.2L379.4 316.8L370.7 316.8L370.7 321.7L380.2 321.7L380.2 325.2ZM397.3 325.2L383.5 325.2L383.5 304.8L397.3 304.8L397.3 308.4L387.9 308.4L387.9 313.2L396.6 313.2L396.6 316.8L387.9 316.8L387.9 321.7L397.3 321.7L397.3 325.2ZM413.4 304.8L417.7 304.8L417.7 325.2L414.0 325.2L405.2 312.4L405.0 312.4L405.0 325.2L400.7 325.2L400.7 304.8L404.5 304.8L413.3 317.7L413.4 317.7L413.4 304.8ZM436.5 310.7L432.3 310.7Q432.2 309.5 431.3 308.8Q430.4 308.2 428.9 308.2L428.9 308.2Q427.8 308.2 427.1 308.5Q426.3 308.8 426.0 309.3Q425.6 309.8 425.6 310.4L425.6 310.4Q425.6 311.0 425.8 311.4Q426.1 311.8 426.5 312.1Q427.0 312.4 427.5 312.6Q428.1 312.8 428.8 313.0L428.8 313.0L430.6 313.4Q432.0 313.7 433.1 314.2Q434.2 314.7 435.0 315.4Q435.8 316.1 436.3 317.1Q436.7 318.1 436.7 319.4L436.7 319.4Q436.7 321.3 435.8 322.6Q434.8 324.0 433.1 324.7Q431.3 325.5 428.8 325.5L428.8 325.5Q426.4 325.5 424.5 324.7Q422.7 324.0 421.7 322.5Q420.7 321.0 420.6 318.8L420.6 318.8L424.8 318.8Q424.9 319.8 425.4 320.5Q425.9 321.2 426.8 321.5Q427.7 321.9 428.8 321.9L428.8 321.9Q429.9 321.9 430.7 321.6Q431.5 321.3 431.9 320.7Q432.4 320.1 432.4 319.4L432.4 319.4Q432.4 318.7 432.0 318.2Q431.6 317.8 430.8 317.4Q430.0 317.1 428.9 316.8L428.9 316.8L426.7 316.3Q424.1 315.7 422.6 314.3Q421.2 313.0 421.2 310.7L421.2 310.7Q421.2 308.9 422.2 307.5Q423.2 306.1 424.9 305.3Q426.7 304.6 428.9 304.6L428.9 304.6Q431.1 304.6 432.8 305.3Q434.5 306.1 435.5 307.5Q436.4 308.9 436.5 310.7L436.5 310.7ZM443.9 325.2L439.6 325.2L439.6 304.8L443.9 304.8L443.9 313.2L452.7 313.2L452.7 304.8L457.0 304.8L457.0 325.2L452.7 325.2L452.7 316.8L443.9 316.8L443.9 325.2ZM479.2 315.0L479.2 315.0Q479.2 318.4 478.0 320.7Q476.7 323.0 474.5 324.3Q472.4 325.5 469.7 325.5L469.7 325.5Q467.0 325.5 464.8 324.3Q462.7 323.0 461.4 320.7Q460.2 318.3 460.2 315.0L460.2 315.0Q460.2 311.7 461.4 309.4Q462.7 307.0 464.8 305.8Q467.0 304.6 469.7 304.6L469.7 304.6Q472.4 304.6 474.5 305.8Q476.7 307.0 478.0 309.4Q479.2 311.7 479.2 315.0ZM474.9 315.0L474.9 315.0Q474.9 312.9 474.2 311.4Q473.6 309.9 472.4 309.1Q471.2 308.4 469.7 308.4L469.7 308.4Q468.1 308.4 467.0 309.1Q465.8 309.9 465.2 311.4Q464.5 312.9 464.5 315.0L464.5 315.0Q464.5 317.2 465.2 318.7Q465.8 320.1 467.0 320.9Q468.1 321.7 469.7 321.7L469.7 321.7Q471.2 321.7 472.4 320.9Q473.6 320.1 474.2 318.7Q474.9 317.2 474.9 315.0ZM487.0 308.4L480.7 308.4L480.7 304.8L497.4 304.8L497.4 308.4L491.2 308.4L491.2 325.2L487.0 325.2L487.0 308.4Z M507.6 325.2L507.6 304.8L512.9 304.8L518.5 318.5L518.8 318.5L524.4 304.8L529.7 304.8L529.7 325.2L525.5 325.2L525.5 312.0L525.3 312.0L520.1 325.1L517.2 325.1L512.0 311.9L511.8 311.9L511.8 325.2L507.6 325.2ZM551.9 315.0L551.9 315.0Q551.9 318.4 550.7 320.7Q549.4 323.0 547.3 324.3Q545.1 325.5 542.4 325.5L542.4 325.5Q539.7 325.5 537.5 324.3Q535.4 323.0 534.1 320.7Q532.9 318.3 532.9 315.0L532.9 315.0Q532.9 311.7 534.1 309.4Q535.4 307.0 537.5 305.8Q539.7 304.6 542.4 304.6L542.4 304.6Q545.1 304.6 547.3 305.8Q549.4 307.0 550.7 309.4Q551.9 311.7 551.9 315.0ZM547.6 315.0L547.6 315.0Q547.6 312.9 546.9 311.4Q546.3 309.9 545.1 309.1Q544.0 308.4 542.4 308.4L542.4 308.4Q540.8 308.4 539.7 309.1Q538.5 309.9 537.9 311.4Q537.2 312.9 537.2 315.0L537.2 315.0Q537.2 317.2 537.9 318.7Q538.5 320.1 539.7 320.9Q540.8 321.7 542.4 321.7L542.4 321.7Q544.0 321.7 545.1 320.9Q546.3 320.1 546.9 318.7Q547.6 317.2 547.6 315.0ZM573.1 312.0L573.1 312.0L568.7 312.0Q568.6 311.1 568.2 310.5Q567.9 309.8 567.3 309.3Q566.7 308.9 566.0 308.6Q565.2 308.4 564.3 308.4L564.3 308.4Q562.8 308.4 561.6 309.2Q560.4 309.9 559.8 311.4Q559.1 312.9 559.1 315.0L559.1 315.0Q559.1 317.2 559.8 318.7Q560.4 320.2 561.6 320.9Q562.8 321.7 564.3 321.7L564.3 321.7Q565.2 321.7 565.9 321.4Q566.7 321.2 567.2 320.8Q567.8 320.3 568.2 319.7Q568.6 319.1 568.7 318.2L568.7 318.2L573.1 318.3Q572.9 319.7 572.2 321.0Q571.6 322.3 570.4 323.3Q569.3 324.3 567.8 324.9Q566.2 325.5 564.2 325.5L564.2 325.5Q561.5 325.5 559.4 324.3Q557.2 323.0 556.0 320.7Q554.8 318.3 554.8 315.0L554.8 315.0Q554.8 311.7 556.0 309.4Q557.3 307.0 559.4 305.8Q561.6 304.6 564.2 304.6L564.2 304.6Q566.0 304.6 567.5 305.1Q569.0 305.6 570.2 306.5Q571.4 307.5 572.1 308.8Q572.9 310.2 573.1 312.0ZM580.5 325.2L576.2 325.2L576.2 304.8L580.5 304.8L580.5 313.8L580.8 313.8L588.1 304.8L593.2 304.8L585.7 314.0L593.3 325.2L588.2 325.2L582.6 316.8L580.5 319.4L580.5 325.2ZM608.1 317.7L608.1 304.8L612.4 304.8L612.4 318.1Q612.4 320.3 611.3 322.0Q610.3 323.6 608.4 324.6Q606.5 325.5 603.9 325.5L603.9 325.5Q601.4 325.5 599.5 324.6Q597.6 323.6 596.5 322.0Q595.5 320.3 595.5 318.1L595.5 318.1L595.5 304.8L599.8 304.8L599.8 317.7Q599.8 318.9 600.3 319.8Q600.8 320.7 601.8 321.2Q602.7 321.7 603.9 321.7L603.9 321.7Q605.2 321.7 606.1 321.2Q607.0 320.7 607.6 319.8Q608.1 318.9 608.1 317.7L608.1 317.7ZM620.2 325.2L615.9 325.2L615.9 304.8L623.9 304.8Q626.3 304.8 627.9 305.7Q629.5 306.6 630.4 308.2Q631.2 309.7 631.2 311.7L631.2 311.7Q631.2 313.8 630.4 315.3Q629.5 316.9 627.8 317.7Q626.2 318.6 623.8 318.6L623.8 318.6L618.7 318.6L618.7 315.2L623.1 315.2Q624.4 315.2 625.2 314.7Q626.0 314.3 626.4 313.5Q626.8 312.7 626.8 311.7L626.8 311.7Q626.8 310.7 626.4 310.0Q626.0 309.2 625.2 308.8Q624.4 308.4 623.1 308.4L623.1 308.4L620.2 308.4L620.2 325.2ZM649.2 310.7L645.1 310.7Q645.0 309.5 644.1 308.8Q643.2 308.2 641.6 308.2L641.6 308.2Q640.6 308.2 639.8 308.5Q639.1 308.8 638.7 309.3Q638.3 309.8 638.3 310.4L638.3 310.4Q638.3 311.0 638.6 311.4Q638.8 311.8 639.3 312.1Q639.7 312.4 640.3 312.6Q640.9 312.8 641.6 313.0L641.6 313.0L643.4 313.4Q644.7 313.7 645.8 314.2Q647.0 314.7 647.8 315.4Q648.6 316.1 649.0 317.1Q649.5 318.1 649.5 319.4L649.5 319.4Q649.5 321.3 648.6 322.6Q647.6 324.0 645.8 324.7Q644.1 325.5 641.6 325.5L641.6 325.5Q639.1 325.5 637.3 324.7Q635.5 324.0 634.5 322.5Q633.4 321.0 633.4 318.8L633.4 318.8L637.6 318.8Q637.6 319.8 638.1 320.5Q638.7 321.2 639.6 321.5Q640.4 321.9 641.5 321.9L641.5 321.9Q642.6 321.9 643.4 321.6Q644.3 321.3 644.7 320.7Q645.2 320.1 645.2 319.4L645.2 319.4Q645.2 318.7 644.8 318.2Q644.3 317.8 643.6 317.4Q642.8 317.1 641.7 316.8L641.7 316.8L639.5 316.3Q636.9 315.7 635.4 314.3Q633.9 313.0 633.9 310.7L633.9 310.7Q633.9 308.9 634.9 307.5Q635.9 306.1 637.7 305.3Q639.4 304.6 641.6 304.6L641.6 304.6Q643.9 304.6 645.6 305.3Q647.3 306.1 648.2 307.5Q649.2 308.9 649.2 310.7L649.2 310.7Z "/></svg>